<svg width="25" height="26" viewBox="0 0 25 26" fill="none" xmlns="http://www.w3.org/2000/svg">
<path fill-rule="evenodd" clip-rule="evenodd" d="M12.2773 10.2138C11.4616 10.2138 10.7763 9.62171 10.5823 8.82045H5.86047V7.8929H10.5824C10.7766 7.09189 11.4618 6.5 12.2773 6.5C13.0928 6.5 13.778 7.09189 13.9722 7.8929H19.8595V8.82045H13.9723C13.7783 9.62171 13.0929 10.2138 12.2773 10.2138ZM12.2773 9.28613C12.7605 9.28613 13.1523 8.87042 13.1523 8.35762C13.1523 7.84481 12.7605 7.4291 12.2773 7.4291C11.794 7.4291 11.4023 7.84481 11.4023 8.35762C11.4023 8.87042 11.794 9.28613 12.2773 9.28613Z" fill="white"/>
<path d="M9.41551 17.1791H5.86047V18.1054H9.4151C9.60814 18.9048 10.2902 19.4964 11.1029 19.5L11.1104 19.5L11.1179 19.5C11.9307 19.4964 12.6127 18.9048 12.8057 18.1054H19.8605V17.1791H12.8053C12.6111 16.378 11.9259 15.7861 11.1104 15.7861C10.2949 15.7861 9.60969 16.378 9.41551 17.1791Z" fill="white"/>
<path d="M15.1935 14.8571C14.3778 14.8571 13.6924 14.2649 13.4984 13.4635H5.86047V12.5361H13.4985C13.6927 11.735 14.3779 11.143 15.1935 11.143C16.009 11.143 16.6942 11.735 16.8884 12.5361H19.8598V13.4635H16.8885C16.6945 14.2649 16.0091 14.8571 15.1935 14.8571Z" fill="white"/>
</svg>
